<svg width="252" height="226" viewBox="0 0 252 226" fill="none" xmlns="http://www.w3.org/2000/svg">
<g id="melon01">
<g id="Ellipse 2" filter="url(#filter0_f)">
<ellipse cx="126" cy="190.5" rx="105" ry="20.5" fill="black" fill-opacity="0.1"/>
</g>
<ellipse id="Ellipse" cx="126" cy="107.5" rx="105" ry="88.5" fill="url(#paint0_radial)"/>
<g id="Vector">
<path d="M41.5 56C102.441 22.1862 160.975 25.9144 211 56C147.151 39.8211 102.158 38.848 41.5 56Z" fill="#398639"/>
<path d="M25.5 83C105.945 67.1836 149.725 69.0416 226.5 83C147.84 49.8844 99.9065 52.7165 25.5 83Z" fill="#398639"/>
<path d="M21.5 107C101.875 88.6733 157.15 89.5817 230.5 107C148.116 121.885 102.369 121.591 21.5 107Z" fill="#398639"/>
<path d="M25.5 131C104.187 144.977 148.223 145.04 226.5 131C149.784 163.194 105.75 162.727 25.5 131Z" fill="#398639"/>
<path d="M42.5 160C105.854 174.777 142.605 174.23 210 160C146.648 192.3 109.895 191.064 42.5 160Z" fill="#398639"/>
</g>
</g>
<defs>
<filter id="filter0_f" x="18" y="167" width="216" height="47" filterUnits="userSpaceOnUse" color-interpolation-filters="sRGB">
<feFlood flood-opacity="0" result="BackgroundImageFix"/>
<feBlend mode="normal" in="SourceGraphic" in2="BackgroundImageFix" result="shape"/>
<feGaussianBlur stdDeviation="1.5" result="effect1_foregroundBlur"/>
</filter>
<radialGradient id="paint0_radial" cx="0" cy="0" r="1" gradientUnits="userSpaceOnUse" gradientTransform="translate(126 107.5) rotate(90) scale(88.5 105)">
<stop offset="0.651934" stop-color="#8FCB58"/>
<stop offset="1" stop-color="#69C64C"/>
</radialGradient>
</defs>
</svg>
