<svg width="56" height="33" fill="none" xmlns="http://www.w3.org/2000/svg"><g clip-path="url(#clip0)"><mask id="a" maskUnits="userSpaceOnUse" x="-1" y="0" width="57" height="34"><path d="M.013 0c-1 43.5 56.973 44.5 55.974 0H.013z" fill="#63C54B"/></mask><g mask="url(#a)"><path d="M.013 0c-1 43.5 56.973 44.5 55.974 0H.013z" fill="#63C54B"/><path d="M0-.5h-.724l.257.677c6.924 18.253 18.96 25.328 30.46 24.21C41.445 23.273 52.154 14.047 56.477.149L56.68-.5H0z" fill="#F73D4F" stroke="#BBF179"/><ellipse cx="38.711" cy="13.216" rx="1" ry="2" transform="rotate(34 38.71 13.216)" fill="url(#paint0_radial)"/><ellipse cx="34.808" cy="13.686" rx="1" ry="2.5" transform="rotate(26 34.808 13.686)" fill="url(#paint1_radial)"/><ellipse cx="26.501" cy="10.646" rx="1" ry="2.5" transform="rotate(11 26.5 10.646)" fill="url(#paint2_radial)"/><ellipse cx="22.338" cy="9.339" rx="1" ry="2.5" transform="rotate(-8 22.338 9.34)" fill="url(#paint3_radial)"/><ellipse cx="18.939" cy="3.475" rx="1" ry="2.5" transform="rotate(45 18.94 3.475)" fill="url(#paint4_radial)"/><ellipse cx="19.116" cy="15.648" rx="1.25" ry="2.5" transform="rotate(45 19.116 15.648)" fill="url(#paint5_radial)"/><ellipse cx="28.15" cy="15.095" rx="1.25" ry="2.5" transform="rotate(68 28.15 15.095)" fill="url(#paint6_radial)"/><ellipse cx="30.673" cy="3.958" rx="1.25" ry="2.5" transform="rotate(55 30.673 3.958)" fill="url(#paint7_radial)"/><ellipse cx="45.651" cy="5.109" rx="1.5" ry="2.75" transform="rotate(35 45.651 5.11)" fill="url(#paint8_radial)"/><ellipse cx="10.854" cy="6.796" rx="1" ry="1.75" transform="rotate(-37 10.854 6.796)" fill="url(#paint9_radial)"/><ellipse cx="37.146" cy="7.812" rx="1.125" ry="2" transform="rotate(-40 37.146 7.812)" fill="url(#paint10_radial)"/></g></g><defs><radialGradient id="paint1_radial" cx="0" cy="0" r="1" gradientUnits="userSpaceOnUse" gradientTransform="matrix(0 2.5 -1 0 34.808 13.686)"><stop offset=".779" stop-color="#430E11"/><stop offset="1" stop-color="#430E11" stop-opacity="0"/></radialGradient><radialGradient id="paint6_radial" cx="0" cy="0" r="1" gradientUnits="userSpaceOnUse" gradientTransform="matrix(0 2.5 -1.25 0 28.15 15.095)"><stop offset=".779" stop-color="#430E11"/><stop offset="1" stop-color="#430E11" stop-opacity="0"/></radialGradient><radialGradient id="paint2_radial" cx="0" cy="0" r="1" gradientUnits="userSpaceOnUse" gradientTransform="matrix(0 2.5 -1 0 26.5 10.646)"><stop offset=".309" stop-color="#430E11"/><stop offset="1" stop-color="#430E11" stop-opacity="0"/></radialGradient><radialGradient id="paint3_radial" cx="0" cy="0" r="1" gradientUnits="userSpaceOnUse" gradientTransform="matrix(0 2.5 -1 0 22.338 9.34)"><stop offset=".779" stop-color="#430E11"/><stop offset="1" stop-color="#430E11" stop-opacity="0"/></radialGradient><radialGradient id="paint4_radial" cx="0" cy="0" r="1" gradientUnits="userSpaceOnUse" gradientTransform="matrix(0 2.5 -1 0 18.94 3.475)"><stop offset=".436" stop-color="#430E11"/><stop offset="1" stop-color="#430E11" stop-opacity="0"/></radialGradient><radialGradient id="paint5_radial" cx="0" cy="0" r="1" gradientUnits="userSpaceOnUse" gradientTransform="matrix(0 2.5 -1.25 0 19.116 15.648)"><stop offset=".442" stop-color="#430E11"/><stop offset=".641" stop-color="#430E11"/><stop offset=".779" stop-color="#430E11"/><stop offset="1" stop-color="#430E11" stop-opacity="0"/></radialGradient><radialGradient id="paint0_radial" cx="0" cy="0" r="1" gradientUnits="userSpaceOnUse" gradientTransform="matrix(0 2 -1 0 38.71 13.216)"><stop offset=".779" stop-color="#430E11"/><stop offset="1" stop-color="#430E11" stop-opacity="0"/></radialGradient><radialGradient id="paint7_radial" cx="0" cy="0" r="1" gradientUnits="userSpaceOnUse" gradientTransform="matrix(0 2.5 -1.25 0 30.673 3.958)"><stop offset=".674" stop-color="#430E11"/><stop offset="1" stop-color="#430E11" stop-opacity="0"/></radialGradient><radialGradient id="paint8_radial" cx="0" cy="0" r="1" gradientUnits="userSpaceOnUse" gradientTransform="matrix(0 2.75 -1.5 0 45.651 5.11)"><stop offset=".47" stop-color="#430E11"/><stop offset="1" stop-color="#430E11" stop-opacity="0"/></radialGradient><radialGradient id="paint9_radial" cx="0" cy="0" r="1" gradientUnits="userSpaceOnUse" gradientTransform="matrix(0 1.75 -1 0 10.854 6.796)"><stop offset=".436" stop-color="#430E11"/><stop offset="1" stop-color="#430E11" stop-opacity="0"/></radialGradient><radialGradient id="paint10_radial" cx="0" cy="0" r="1" gradientUnits="userSpaceOnUse" gradientTransform="matrix(0 2 -1.125 0 37.146 7.812)"><stop offset=".481" stop-color="#430E11"/><stop offset="1" stop-color="#430E11" stop-opacity="0"/></radialGradient><clipPath id="clip0"><path fill="#fff" d="M0 0h56v33H0z"/></clipPath></defs></svg>