<svg width="250" height="250" viewBox="0 0 250 250" fill="none" xmlns="http://www.w3.org/2000/svg">
<g id="melon02">
<circle id="Ellipse" cx="125" cy="125" r="116.5" stroke="#63C54B" stroke-width="17"/>
<path id="Ellipse 2" d="M228 125C228 182.481 181.842 229 125 229C68.158 229 22 182.481 22 125C22 67.5188 68.158 21 125 21C181.842 21 228 67.5188 228 125Z" stroke="#C3E276" stroke-width="10"/>
<ellipse id="Ellipse 3" cx="125" cy="125" rx="98" ry="99" fill="url(#paint0_radial)"/>
<g id="&#208;&#154;&#208;&#190;&#209;&#129;&#209;&#130;&#208;&#190;&#209;&#135;&#208;&#186;&#208;&#184;">
<ellipse id="Ellipse 4" rx="3.26338" ry="7.86687" transform="matrix(0.984974 -0.1727 0.163426 0.986556 116.5 52.4732)" fill="url(#paint1_radial)"/>
<ellipse id="Ellipse 4.1" rx="3.30507" ry="7.77041" transform="matrix(0.718965 0.695046 -0.674394 0.738372 95.6166 54.3309)" fill="url(#paint2_radial)"/>
<ellipse id="Ellipse 4.2" rx="3.30507" ry="7.77042" transform="matrix(0.718965 0.695047 -0.674394 0.738372 88.6166 93.4256)" fill="url(#paint3_radial)"/>
<ellipse id="Ellipse 4.3" rx="3.28173" ry="7.82472" transform="matrix(0.876696 0.481045 -0.460238 0.887796 146.617 97.5408)" fill="url(#paint4_radial)"/>
<ellipse id="Ellipse 4.4" rx="3.28173" ry="7.82472" transform="matrix(0.876696 0.481044 -0.460238 0.887796 146.478 73.3402)" fill="url(#paint5_radial)"/>
<ellipse id="Ellipse 4.5" rx="3.28173" ry="7.82472" transform="matrix(0.876696 0.481045 -0.460238 0.887796 157.478 71.2826)" fill="url(#paint6_radial)"/>
<ellipse id="Ellipse 4.6" rx="3.28173" ry="7.82472" transform="matrix(0.876696 0.481045 -0.460238 0.887796 177.478 79.5131)" fill="url(#paint7_radial)"/>
<ellipse id="Ellipse 4.7" rx="3.28173" ry="7.82472" transform="matrix(0.876696 0.481045 -0.460238 0.887796 165.478 109.348)" fill="url(#paint8_radial)"/>
<ellipse id="Ellipse 4.8" rx="3.28173" ry="7.82473" transform="matrix(0.876696 0.481045 -0.460237 0.887796 154.478 111.406)" fill="url(#paint9_radial)"/>
<ellipse id="Ellipse 4.9" rx="3.28173" ry="7.82472" transform="matrix(0.876696 0.481044 -0.460238 0.887796 161.478 158.731)" fill="url(#paint10_radial)"/>
<ellipse id="Ellipse 4.27" rx="3.35291" ry="7.65667" transform="matrix(0.131788 0.991278 -0.990244 0.139344 181.024 152.539)" fill="url(#paint11_radial)"/>
<ellipse id="Ellipse 4.28" rx="3.31273" ry="7.75241" transform="matrix(-0.659906 0.751348 -0.732409 -0.680865 172.864 127.109)" fill="url(#paint12_radial)"/>
<ellipse id="Ellipse 4.29" rx="3.31274" ry="7.75243" transform="matrix(-0.659905 0.751349 -0.732407 -0.680867 156.864 142.541)" fill="url(#paint13_radial)"/>
<ellipse id="Ellipse 4.30" rx="3.26218" ry="7.86958" transform="matrix(-0.991645 0.128997 -0.121983 -0.992532 187.195 105.968)" fill="url(#paint14_radial)"/>
<ellipse id="Ellipse 4.31" rx="3.26217" ry="7.86957" transform="matrix(-0.991645 0.128998 -0.121983 -0.992532 198.195 126.544)" fill="url(#paint15_radial)"/>
<ellipse id="Ellipse 4.10" rx="3.28173" ry="7.82474" transform="matrix(0.876696 0.481046 -0.460237 0.887796 149.478 161.818)" fill="url(#paint16_radial)"/>
<ellipse id="Ellipse 4.11" rx="3.30338" ry="7.77438" transform="matrix(0.731429 0.681918 -0.660978 0.750405 92.5549 142.86)" fill="url(#paint17_radial)"/>
<ellipse id="Ellipse 4.12" rx="3.31193" ry="7.75432" transform="matrix(0.666332 0.745655 -0.726504 0.687163 75.8404 128.168)" fill="url(#paint18_radial)"/>
<ellipse id="Ellipse 4.13" rx="3.31193" ry="7.75431" transform="matrix(0.666333 0.745655 -0.726505 0.687162 91.8404 124.053)" fill="url(#paint19_radial)"/>
<ellipse id="Ellipse 4.16" rx="3.31433" ry="7.74867" transform="matrix(0.646999 -0.762491 0.743988 0.668193 161.909 93.0957)" fill="url(#paint20_radial)"/>
<ellipse id="Ellipse 4.17" rx="3.31433" ry="7.74867" transform="matrix(0.646999 -0.762491 0.743988 0.668193 153.909 54.0011)" fill="url(#paint21_radial)"/>
<ellipse id="Ellipse 4.18" rx="3.28165" ry="7.82489" transform="matrix(0.877153 -0.480211 0.45942 0.888219 102.473 98.0323)" fill="url(#paint22_radial)"/>
<ellipse id="Ellipse 4.19" rx="3.28165" ry="7.82489" transform="matrix(0.877153 -0.480211 0.45942 0.888219 94.4734 110.378)" fill="url(#paint23_radial)"/>
<ellipse id="Ellipse 4.20" rx="3.28165" ry="7.82489" transform="matrix(0.877153 -0.480211 0.45942 0.888219 84.4734 110.378)" fill="url(#paint24_radial)"/>
<ellipse id="Ellipse 4.21" rx="3.28165" ry="7.82489" transform="matrix(0.877153 -0.480211 0.45942 0.888219 72.4734 79.5137)" fill="url(#paint25_radial)"/>
<ellipse id="Ellipse 4.22" rx="3.28165" ry="7.82489" transform="matrix(0.877153 -0.480211 0.45942 0.888219 91.4734 71.2833)" fill="url(#paint26_radial)"/>
<ellipse id="Ellipse 4.23" rx="3.28165" ry="7.82489" transform="matrix(0.877153 -0.480211 0.45942 0.888219 102.473 73.3409)" fill="url(#paint27_radial)"/>
<ellipse id="Ellipse 4.24" rx="3.28166" ry="7.8249" transform="matrix(0.877153 -0.480212 0.459419 0.88822 88.4734 159.761)" fill="url(#paint28_radial)"/>
<ellipse id="Ellipse 4.25" rx="3.28165" ry="7.82489" transform="matrix(0.877153 -0.480211 0.45942 0.888219 99.4734 161.818)" fill="url(#paint29_radial)"/>
<ellipse id="Ellipse 4.32" rx="3.28165" ry="7.82489" transform="matrix(0.877153 -0.480211 0.45942 0.888219 107.473 200.913)" fill="url(#paint30_radial)"/>
<ellipse id="Ellipse 4.33" rx="2.99372" ry="7.06857" transform="matrix(0.877153 -0.480211 0.459419 0.888219 80.3785 183.642)" fill="url(#paint31_radial)"/>
<ellipse id="Ellipse 4.34" rx="3.01745" ry="7.01387" transform="matrix(0.699508 0.714624 -0.694476 0.719516 111.873 183.642)" fill="url(#paint32_radial)"/>
<ellipse id="Ellipse 4.35" rx="3.01863" ry="7.01111" transform="matrix(0.689571 -0.724218 0.704353 0.70985 137.982 183.129)" fill="url(#paint33_radial)"/>
<ellipse id="Ellipse 4.36" rx="3.31685" ry="7.73027" transform="matrix(0.873392 0.487018 -0.466102 0.884731 142.5 199.668)" fill="url(#paint34_radial)"/>
<ellipse id="Ellipse 4.37" rx="3.79303" ry="8.98346" transform="matrix(0.873392 0.487019 -0.466101 0.884731 168.5 184.229)" fill="url(#paint35_radial)"/>
<ellipse id="Ellipse 4.26" rx="3.34766" ry="7.66931" transform="matrix(0.266746 -0.963767 0.959669 0.281133 67.4734 152.559)" fill="url(#paint36_radial)"/>
<ellipse id="Ellipse 4.14" rx="3.43047" ry="8.35327" transform="matrix(0.977679 0.210106 -0.198977 0.980004 61.6918 106.644)" fill="url(#paint37_radial)"/>
<ellipse id="Ellipse 4.15" rx="3.43047" ry="8.35326" transform="matrix(0.977679 0.210106 -0.198977 0.980004 51.016 127.22)" fill="url(#paint38_radial)"/>
</g>
</g>
<defs>
<radialGradient id="paint0_radial" cx="0" cy="0" r="1" gradientUnits="userSpaceOnUse" gradientTransform="translate(125 125) rotate(90) scale(99 98)">
<stop offset="0.320442" stop-color="#EF3E4D"/>
<stop offset="0.734807" stop-color="#CF3E49"/>
</radialGradient>
<radialGradient id="paint1_radial" cx="0" cy="0" r="1" gradientUnits="userSpaceOnUse" gradientTransform="translate(3.26338 7.86687) rotate(90) scale(7.86687 3.26338)">
<stop offset="0.823204" stop-color="#410D10"/>
<stop offset="1" stop-color="#410D10" stop-opacity="0"/>
</radialGradient>
<radialGradient id="paint2_radial" cx="0" cy="0" r="1" gradientUnits="userSpaceOnUse" gradientTransform="translate(3.30507 7.77041) rotate(90) scale(7.77041 3.30507)">
<stop offset="0.823204" stop-color="#410D10"/>
<stop offset="1" stop-color="#410D10" stop-opacity="0"/>
</radialGradient>
<radialGradient id="paint3_radial" cx="0" cy="0" r="1" gradientUnits="userSpaceOnUse" gradientTransform="translate(3.30507 7.77042) rotate(90) scale(7.77042 3.30507)">
<stop offset="0.823204" stop-color="#410D10"/>
<stop offset="1" stop-color="#410D10" stop-opacity="0"/>
</radialGradient>
<radialGradient id="paint4_radial" cx="0" cy="0" r="1" gradientUnits="userSpaceOnUse" gradientTransform="translate(3.28173 7.82472) rotate(90) scale(7.82472 3.28173)">
<stop offset="0.823204" stop-color="#410D10"/>
<stop offset="1" stop-color="#410D10" stop-opacity="0"/>
</radialGradient>
<radialGradient id="paint5_radial" cx="0" cy="0" r="1" gradientUnits="userSpaceOnUse" gradientTransform="translate(3.28173 7.82472) rotate(90) scale(7.82472 3.28173)">
<stop offset="0.823204" stop-color="#410D10"/>
<stop offset="1" stop-color="#410D10" stop-opacity="0"/>
</radialGradient>
<radialGradient id="paint6_radial" cx="0" cy="0" r="1" gradientUnits="userSpaceOnUse" gradientTransform="translate(3.28173 7.82472) rotate(90) scale(7.82472 3.28173)">
<stop offset="0.823204" stop-color="#410D10"/>
<stop offset="1" stop-color="#410D10" stop-opacity="0"/>
</radialGradient>
<radialGradient id="paint7_radial" cx="0" cy="0" r="1" gradientUnits="userSpaceOnUse" gradientTransform="translate(3.28173 7.82472) rotate(90) scale(7.82472 3.28173)">
<stop offset="0.823204" stop-color="#410D10"/>
<stop offset="1" stop-color="#410D10" stop-opacity="0"/>
</radialGradient>
<radialGradient id="paint8_radial" cx="0" cy="0" r="1" gradientUnits="userSpaceOnUse" gradientTransform="translate(3.28173 7.82472) rotate(90) scale(7.82472 3.28173)">
<stop offset="0.823204" stop-color="#410D10"/>
<stop offset="1" stop-color="#410D10" stop-opacity="0"/>
</radialGradient>
<radialGradient id="paint9_radial" cx="0" cy="0" r="1" gradientUnits="userSpaceOnUse" gradientTransform="translate(3.28173 7.82473) rotate(90) scale(7.82473 3.28173)">
<stop offset="0.823204" stop-color="#410D10"/>
<stop offset="1" stop-color="#410D10" stop-opacity="0"/>
</radialGradient>
<radialGradient id="paint10_radial" cx="0" cy="0" r="1" gradientUnits="userSpaceOnUse" gradientTransform="translate(3.28173 7.82472) rotate(90) scale(7.82472 3.28173)">
<stop offset="0.823204" stop-color="#410D10"/>
<stop offset="1" stop-color="#410D10" stop-opacity="0"/>
</radialGradient>
<radialGradient id="paint11_radial" cx="0" cy="0" r="1" gradientUnits="userSpaceOnUse" gradientTransform="translate(3.35291 7.65667) rotate(90) scale(7.65667 3.35291)">
<stop offset="0.823204" stop-color="#410D10"/>
<stop offset="1" stop-color="#410D10" stop-opacity="0"/>
</radialGradient>
<radialGradient id="paint12_radial" cx="0" cy="0" r="1" gradientUnits="userSpaceOnUse" gradientTransform="translate(3.31273 7.75241) rotate(90) scale(7.75241 3.31273)">
<stop offset="0.823204" stop-color="#410D10"/>
<stop offset="1" stop-color="#410D10" stop-opacity="0"/>
</radialGradient>
<radialGradient id="paint13_radial" cx="0" cy="0" r="1" gradientUnits="userSpaceOnUse" gradientTransform="translate(3.31274 7.75243) rotate(90) scale(7.75243 3.31274)">
<stop offset="0.823204" stop-color="#410D10"/>
<stop offset="1" stop-color="#410D10" stop-opacity="0"/>
</radialGradient>
<radialGradient id="paint14_radial" cx="0" cy="0" r="1" gradientUnits="userSpaceOnUse" gradientTransform="translate(3.26218 7.86958) rotate(90) scale(7.86958 3.26218)">
<stop offset="0.823204" stop-color="#410D10"/>
<stop offset="1" stop-color="#410D10" stop-opacity="0"/>
</radialGradient>
<radialGradient id="paint15_radial" cx="0" cy="0" r="1" gradientUnits="userSpaceOnUse" gradientTransform="translate(3.26217 7.86957) rotate(90) scale(7.86957 3.26217)">
<stop offset="0.823204" stop-color="#410D10"/>
<stop offset="1" stop-color="#410D10" stop-opacity="0"/>
</radialGradient>
<radialGradient id="paint16_radial" cx="0" cy="0" r="1" gradientUnits="userSpaceOnUse" gradientTransform="translate(3.28173 7.82474) rotate(90) scale(7.82474 3.28173)">
<stop offset="0.823204" stop-color="#410D10"/>
<stop offset="1" stop-color="#410D10" stop-opacity="0"/>
</radialGradient>
<radialGradient id="paint17_radial" cx="0" cy="0" r="1" gradientUnits="userSpaceOnUse" gradientTransform="translate(3.30338 7.77438) rotate(90) scale(7.77438 3.30338)">
<stop offset="0.823204" stop-color="#410D10"/>
<stop offset="1" stop-color="#410D10" stop-opacity="0"/>
</radialGradient>
<radialGradient id="paint18_radial" cx="0" cy="0" r="1" gradientUnits="userSpaceOnUse" gradientTransform="translate(3.31193 7.75432) rotate(90) scale(7.75432 3.31193)">
<stop offset="0.823204" stop-color="#410D10"/>
<stop offset="1" stop-color="#410D10" stop-opacity="0"/>
</radialGradient>
<radialGradient id="paint19_radial" cx="0" cy="0" r="1" gradientUnits="userSpaceOnUse" gradientTransform="translate(3.31193 7.75431) rotate(90) scale(7.75431 3.31193)">
<stop offset="0.823204" stop-color="#410D10"/>
<stop offset="1" stop-color="#410D10" stop-opacity="0"/>
</radialGradient>
<radialGradient id="paint20_radial" cx="0" cy="0" r="1" gradientUnits="userSpaceOnUse" gradientTransform="translate(3.31433 7.74867) rotate(90) scale(7.74867 3.31433)">
<stop offset="0.823204" stop-color="#410D10"/>
<stop offset="1" stop-color="#410D10" stop-opacity="0"/>
</radialGradient>
<radialGradient id="paint21_radial" cx="0" cy="0" r="1" gradientUnits="userSpaceOnUse" gradientTransform="translate(3.31433 7.74867) rotate(90) scale(7.74867 3.31433)">
<stop offset="0.823204" stop-color="#410D10"/>
<stop offset="1" stop-color="#410D10" stop-opacity="0"/>
</radialGradient>
<radialGradient id="paint22_radial" cx="0" cy="0" r="1" gradientUnits="userSpaceOnUse" gradientTransform="translate(3.28165 7.82489) rotate(90) scale(7.82489 3.28165)">
<stop offset="0.823204" stop-color="#410D10"/>
<stop offset="1" stop-color="#410D10" stop-opacity="0"/>
</radialGradient>
<radialGradient id="paint23_radial" cx="0" cy="0" r="1" gradientUnits="userSpaceOnUse" gradientTransform="translate(3.28165 7.82489) rotate(90) scale(7.82489 3.28165)">
<stop offset="0.823204" stop-color="#410D10"/>
<stop offset="1" stop-color="#410D10" stop-opacity="0"/>
</radialGradient>
<radialGradient id="paint24_radial" cx="0" cy="0" r="1" gradientUnits="userSpaceOnUse" gradientTransform="translate(3.28165 7.82489) rotate(90) scale(7.82489 3.28165)">
<stop offset="0.823204" stop-color="#410D10"/>
<stop offset="1" stop-color="#410D10" stop-opacity="0"/>
</radialGradient>
<radialGradient id="paint25_radial" cx="0" cy="0" r="1" gradientUnits="userSpaceOnUse" gradientTransform="translate(3.28165 7.82489) rotate(90) scale(7.82489 3.28165)">
<stop offset="0.823204" stop-color="#410D10"/>
<stop offset="1" stop-color="#410D10" stop-opacity="0"/>
</radialGradient>
<radialGradient id="paint26_radial" cx="0" cy="0" r="1" gradientUnits="userSpaceOnUse" gradientTransform="translate(3.28165 7.82489) rotate(90) scale(7.82489 3.28165)">
<stop offset="0.823204" stop-color="#410D10"/>
<stop offset="1" stop-color="#410D10" stop-opacity="0"/>
</radialGradient>
<radialGradient id="paint27_radial" cx="0" cy="0" r="1" gradientUnits="userSpaceOnUse" gradientTransform="translate(3.28165 7.82489) rotate(90) scale(7.82489 3.28165)">
<stop offset="0.823204" stop-color="#410D10"/>
<stop offset="1" stop-color="#410D10" stop-opacity="0"/>
</radialGradient>
<radialGradient id="paint28_radial" cx="0" cy="0" r="1" gradientUnits="userSpaceOnUse" gradientTransform="translate(3.28166 7.8249) rotate(90) scale(7.8249 3.28166)">
<stop offset="0.823204" stop-color="#410D10"/>
<stop offset="1" stop-color="#410D10" stop-opacity="0"/>
</radialGradient>
<radialGradient id="paint29_radial" cx="0" cy="0" r="1" gradientUnits="userSpaceOnUse" gradientTransform="translate(3.28165 7.82489) rotate(90) scale(7.82489 3.28165)">
<stop offset="0.823204" stop-color="#410D10"/>
<stop offset="1" stop-color="#410D10" stop-opacity="0"/>
</radialGradient>
<radialGradient id="paint30_radial" cx="0" cy="0" r="1" gradientUnits="userSpaceOnUse" gradientTransform="translate(3.28165 7.82489) rotate(90) scale(7.82489 3.28165)">
<stop offset="0.823204" stop-color="#410D10"/>
<stop offset="1" stop-color="#410D10" stop-opacity="0"/>
</radialGradient>
<radialGradient id="paint31_radial" cx="0" cy="0" r="1" gradientUnits="userSpaceOnUse" gradientTransform="translate(2.99372 7.06857) rotate(90) scale(7.06857 2.99372)">
<stop offset="0.823204" stop-color="#410D10"/>
<stop offset="1" stop-color="#410D10" stop-opacity="0"/>
</radialGradient>
<radialGradient id="paint32_radial" cx="0" cy="0" r="1" gradientUnits="userSpaceOnUse" gradientTransform="translate(3.01745 7.01387) rotate(90) scale(7.01387 3.01745)">
<stop offset="0.823204" stop-color="#410D10"/>
<stop offset="1" stop-color="#410D10" stop-opacity="0"/>
</radialGradient>
<radialGradient id="paint33_radial" cx="0" cy="0" r="1" gradientUnits="userSpaceOnUse" gradientTransform="translate(3.01863 7.01111) rotate(90) scale(7.01111 3.01863)">
<stop offset="0.823204" stop-color="#410D10"/>
<stop offset="1" stop-color="#410D10" stop-opacity="0"/>
</radialGradient>
<radialGradient id="paint34_radial" cx="0" cy="0" r="1" gradientUnits="userSpaceOnUse" gradientTransform="translate(3.31685 7.73027) rotate(90) scale(7.73027 3.31685)">
<stop offset="0.823204" stop-color="#410D10"/>
<stop offset="1" stop-color="#410D10" stop-opacity="0"/>
</radialGradient>
<radialGradient id="paint35_radial" cx="0" cy="0" r="1" gradientUnits="userSpaceOnUse" gradientTransform="translate(3.79303 8.98346) rotate(90) scale(8.98346 3.79303)">
<stop offset="0.823204" stop-color="#410D10"/>
<stop offset="1" stop-color="#410D10" stop-opacity="0"/>
</radialGradient>
<radialGradient id="paint36_radial" cx="0" cy="0" r="1" gradientUnits="userSpaceOnUse" gradientTransform="translate(3.34766 7.66931) rotate(90) scale(7.66931 3.34766)">
<stop offset="0.823204" stop-color="#410D10"/>
<stop offset="1" stop-color="#410D10" stop-opacity="0"/>
</radialGradient>
<radialGradient id="paint37_radial" cx="0" cy="0" r="1" gradientUnits="userSpaceOnUse" gradientTransform="translate(3.43047 8.35327) rotate(90) scale(8.35327 3.43047)">
<stop offset="0.823204" stop-color="#410D10"/>
<stop offset="1" stop-color="#410D10" stop-opacity="0"/>
</radialGradient>
<radialGradient id="paint38_radial" cx="0" cy="0" r="1" gradientUnits="userSpaceOnUse" gradientTransform="translate(3.43047 8.35326) rotate(90) scale(8.35326 3.43047)">
<stop offset="0.823204" stop-color="#410D10"/>
<stop offset="1" stop-color="#410D10" stop-opacity="0"/>
</radialGradient>
</defs>
</svg>
