<svg width="210" height="210" fill="none" xmlns="http://www.w3.org/2000/svg"><g filter="url(#filter0_f)"><ellipse cx="105" cy="182" rx="90" ry="20" fill="#2F5B2C" fill-opacity=".404"/></g><ellipse cx="105" cy="93.5" rx="105" ry="88.5" fill="url(#paint0_radial)"/><path d="M20.5 42C81.44 8.186 139.975 11.914 190 42 126.151 25.821 81.158 24.848 20.5 42z" fill="#398639"/><path d="M4.5 69c80.445-15.816 124.225-13.958 201 0-78.66-33.116-126.594-30.283-201 0zm-4 24c80.375-18.327 135.65-17.418 209 0-82.384 14.885-128.131 14.591-209 0zm4 24c78.687 13.977 122.723 14.04 201 0-76.716 32.194-120.75 31.727-201 0z" fill="#398639"/><path d="M21.5 146c63.354 14.777 100.105 14.23 167.5 0-63.352 32.3-100.106 31.064-167.5 0z" fill="#398639"/><defs><radialGradient id="paint0_radial" cx="0" cy="0" r="1" gradientUnits="userSpaceOnUse" gradientTransform="matrix(0 88.5 -105 0 105 93.5)"><stop offset=".652" stop-color="#8FCB58"/><stop offset="1" stop-color="#69C64C"/></radialGradient><filter id="filter0_f" x="12" y="159" width="186" height="46" filterUnits="userSpaceOnUse" color-interpolation-filters="sRGB"><feFlood flood-opacity="0" result="BackgroundImageFix"/><feBlend in="SourceGraphic" in2="BackgroundImageFix" result="shape"/><feGaussianBlur stdDeviation="1.5" result="effect1_foregroundBlur"/></filter></defs></svg>