<svg width="250" height="250" fill="none" xmlns="http://www.w3.org/2000/svg"><circle cx="125" cy="125" r="116.5" stroke="#63C54B" stroke-width="17"/><path d="M228 125c0 57.481-46.158 104-103 104S22 182.481 22 125 68.158 21 125 21s103 46.519 103 104z" stroke="#C3E276" stroke-width="10"/><ellipse cx="125" cy="125" rx="98" ry="99" fill="url(#paint0_radial)"/><ellipse rx="3.263" ry="7.867" transform="matrix(.98497 -.1727 .16343 .98656 116.5 52.473)" fill="url(#paint1_radial)"/><ellipse rx="3.305" ry="7.77" transform="matrix(.71896 .69505 -.6744 .73837 95.617 54.33)" fill="url(#paint2_radial)"/><ellipse rx="3.305" ry="7.77" transform="matrix(.71896 .69505 -.6744 .73837 88.617 93.426)" fill="url(#paint3_radial)"/><ellipse rx="3.282" ry="7.825" transform="matrix(.8767 .48105 -.46024 .8878 146.617 97.54)" fill="url(#paint4_radial)"/><ellipse rx="3.282" ry="7.825" transform="matrix(.8767 .48104 -.46024 .8878 146.478 73.34)" fill="url(#paint5_radial)"/><ellipse rx="3.282" ry="7.825" transform="matrix(.8767 .48105 -.46024 .8878 157.478 71.283)" fill="url(#paint6_radial)"/><ellipse rx="3.282" ry="7.825" transform="matrix(.8767 .48105 -.46024 .8878 177.478 79.513)" fill="url(#paint7_radial)"/><ellipse rx="3.282" ry="7.825" transform="matrix(.8767 .48105 -.46024 .8878 165.478 109.348)" fill="url(#paint8_radial)"/><ellipse rx="3.282" ry="7.825" transform="matrix(.8767 .48105 -.46024 .8878 154.478 111.406)" fill="url(#paint9_radial)"/><ellipse rx="3.282" ry="7.825" transform="matrix(.8767 .48104 -.46024 .8878 161.478 158.731)" fill="url(#paint10_radial)"/><ellipse rx="3.353" ry="7.657" transform="matrix(.13179 .99128 -.99024 .13934 181.024 152.539)" fill="url(#paint11_radial)"/><ellipse rx="3.313" ry="7.752" transform="matrix(-.6599 .75135 -.7324 -.68087 172.864 127.109)" fill="url(#paint12_radial)"/><ellipse rx="3.313" ry="7.752" transform="matrix(-.6599 .75135 -.7324 -.68087 156.864 142.541)" fill="url(#paint13_radial)"/><ellipse rx="3.262" ry="7.87" transform="matrix(-.99164 .129 -.12198 -.99253 187.195 105.968)" fill="url(#paint14_radial)"/><ellipse rx="3.262" ry="7.87" transform="matrix(-.99164 .129 -.12198 -.99253 198.195 126.544)" fill="url(#paint15_radial)"/><ellipse rx="3.282" ry="7.825" transform="matrix(.8767 .48105 -.46024 .8878 149.478 161.818)" fill="url(#paint16_radial)"/><ellipse rx="3.303" ry="7.774" transform="matrix(.73143 .68192 -.66098 .7504 92.555 142.86)" fill="url(#paint17_radial)"/><ellipse rx="3.312" ry="7.754" transform="matrix(.66633 .74565 -.7265 .68716 75.84 128.168)" fill="url(#paint18_radial)"/><ellipse rx="3.312" ry="7.754" transform="matrix(.66633 .74565 -.7265 .68716 91.84 124.053)" fill="url(#paint19_radial)"/><ellipse rx="3.314" ry="7.749" transform="matrix(.647 -.7625 .74399 .6682 161.909 93.096)" fill="url(#paint20_radial)"/><ellipse rx="3.314" ry="7.749" transform="matrix(.647 -.7625 .74399 .6682 153.909 54.001)" fill="url(#paint21_radial)"/><ellipse rx="3.282" ry="7.825" transform="matrix(.87715 -.48021 .45942 .88822 102.473 98.032)" fill="url(#paint22_radial)"/><ellipse rx="3.282" ry="7.825" transform="matrix(.87715 -.48021 .45942 .88822 94.473 110.378)" fill="url(#paint23_radial)"/><ellipse rx="3.282" ry="7.825" transform="matrix(.87715 -.48021 .45942 .88822 84.473 110.378)" fill="url(#paint24_radial)"/><ellipse rx="3.282" ry="7.825" transform="matrix(.87715 -.48021 .45942 .88822 72.473 79.514)" fill="url(#paint25_radial)"/><ellipse rx="3.282" ry="7.825" transform="matrix(.87715 -.48021 .45942 .88822 91.473 71.283)" fill="url(#paint26_radial)"/><ellipse rx="3.282" ry="7.825" transform="matrix(.87715 -.48021 .45942 .88822 102.473 73.34)" fill="url(#paint27_radial)"/><ellipse rx="3.282" ry="7.825" transform="matrix(.87715 -.48021 .45942 .88822 88.473 159.761)" fill="url(#paint28_radial)"/><ellipse rx="3.282" ry="7.825" transform="matrix(.87715 -.48021 .45942 .88822 99.473 161.818)" fill="url(#paint29_radial)"/><ellipse rx="3.282" ry="7.825" transform="matrix(.87715 -.48021 .45942 .88822 107.473 200.913)" fill="url(#paint30_radial)"/><ellipse rx="2.994" ry="7.069" transform="matrix(.87715 -.48021 .45942 .88822 80.379 183.642)" fill="url(#paint31_radial)"/><ellipse rx="3.017" ry="7.014" transform="matrix(.6995 .71462 -.69448 .71952 111.873 183.642)" fill="url(#paint32_radial)"/><ellipse rx="3.019" ry="7.011" transform="matrix(.68957 -.72422 .70435 .70985 137.982 183.129)" fill="url(#paint33_radial)"/><ellipse rx="3.317" ry="7.73" transform="matrix(.8734 .48702 -.4661 .88473 142.5 199.668)" fill="url(#paint34_radial)"/><ellipse rx="3.793" ry="8.983" transform="matrix(.8734 .48702 -.4661 .88473 168.5 184.229)" fill="url(#paint35_radial)"/><ellipse rx="3.348" ry="7.669" transform="matrix(.26675 -.96377 .95967 .28113 67.473 152.559)" fill="url(#paint36_radial)"/><ellipse rx="3.43" ry="8.353" transform="matrix(.97768 .2101 -.19898 .98 61.692 106.644)" fill="url(#paint37_radial)"/><ellipse rx="3.43" ry="8.353" transform="matrix(.97768 .2101 -.19898 .98 51.016 127.22)" fill="url(#paint38_radial)"/><defs><radialGradient id="paint0_radial" cx="0" cy="0" r="1" gradientUnits="userSpaceOnUse" gradientTransform="matrix(0 99 -98 0 125 125)"><stop offset=".32" stop-color="#EF3E4D"/><stop offset=".735" stop-color="#CF3E49"/></radialGradient><radialGradient id="paint1_radial" cx="0" cy="0" r="1" gradientUnits="userSpaceOnUse" gradientTransform="scale(3.26338 7.86687) rotate(90 0 1)"><stop offset=".823" stop-color="#410D10"/><stop offset="1" stop-color="#410D10" stop-opacity="0"/></radialGradient><radialGradient id="paint2_radial" cx="0" cy="0" r="1" gradientUnits="userSpaceOnUse" gradientTransform="scale(3.30507 7.77041) rotate(90 0 1)"><stop offset=".823" stop-color="#410D10"/><stop offset="1" stop-color="#410D10" stop-opacity="0"/></radialGradient><radialGradient id="paint3_radial" cx="0" cy="0" r="1" gradientUnits="userSpaceOnUse" gradientTransform="matrix(0 7.77042 -3.30507 0 3.305 7.77)"><stop offset=".823" stop-color="#410D10"/><stop offset="1" stop-color="#410D10" stop-opacity="0"/></radialGradient><radialGradient id="paint4_radial" cx="0" cy="0" r="1" gradientUnits="userSpaceOnUse" gradientTransform="scale(3.28173 7.82472) rotate(90 0 1)"><stop offset=".823" stop-color="#410D10"/><stop offset="1" stop-color="#410D10" stop-opacity="0"/></radialGradient><radialGradient id="paint5_radial" cx="0" cy="0" r="1" gradientUnits="userSpaceOnUse" gradientTransform="scale(3.28173 7.82472) rotate(90 0 1)"><stop offset=".823" stop-color="#410D10"/><stop offset="1" stop-color="#410D10" stop-opacity="0"/></radialGradient><radialGradient id="paint6_radial" cx="0" cy="0" r="1" gradientUnits="userSpaceOnUse" gradientTransform="scale(3.28173 7.82472) rotate(90 0 1)"><stop offset=".823" stop-color="#410D10"/><stop offset="1" stop-color="#410D10" stop-opacity="0"/></radialGradient><radialGradient id="paint7_radial" cx="0" cy="0" r="1" gradientUnits="userSpaceOnUse" gradientTransform="scale(3.28173 7.82472) rotate(90 0 1)"><stop offset=".823" stop-color="#410D10"/><stop offset="1" stop-color="#410D10" stop-opacity="0"/></radialGradient><radialGradient id="paint8_radial" cx="0" cy="0" r="1" gradientUnits="userSpaceOnUse" gradientTransform="scale(3.28173 7.82472) rotate(90 0 1)"><stop offset=".823" stop-color="#410D10"/><stop offset="1" stop-color="#410D10" stop-opacity="0"/></radialGradient><radialGradient id="paint9_radial" cx="0" cy="0" r="1" gradientUnits="userSpaceOnUse" gradientTransform="matrix(0 7.82473 -3.28173 0 3.282 7.825)"><stop offset=".823" stop-color="#410D10"/><stop offset="1" stop-color="#410D10" stop-opacity="0"/></radialGradient><radialGradient id="paint10_radial" cx="0" cy="0" r="1" gradientUnits="userSpaceOnUse" gradientTransform="scale(3.28173 7.82472) rotate(90 0 1)"><stop offset=".823" stop-color="#410D10"/><stop offset="1" stop-color="#410D10" stop-opacity="0"/></radialGradient><radialGradient id="paint11_radial" cx="0" cy="0" r="1" gradientUnits="userSpaceOnUse" gradientTransform="matrix(0 7.65667 -3.35291 0 3.353 7.657)"><stop offset=".823" stop-color="#410D10"/><stop offset="1" stop-color="#410D10" stop-opacity="0"/></radialGradient><radialGradient id="paint12_radial" cx="0" cy="0" r="1" gradientUnits="userSpaceOnUse" gradientTransform="matrix(0 7.75241 -3.31273 0 3.313 7.752)"><stop offset=".823" stop-color="#410D10"/><stop offset="1" stop-color="#410D10" stop-opacity="0"/></radialGradient><radialGradient id="paint13_radial" cx="0" cy="0" r="1" gradientUnits="userSpaceOnUse" gradientTransform="scale(3.31274 7.75243) rotate(90 0 1)"><stop offset=".823" stop-color="#410D10"/><stop offset="1" stop-color="#410D10" stop-opacity="0"/></radialGradient><radialGradient id="paint14_radial" cx="0" cy="0" r="1" gradientUnits="userSpaceOnUse" gradientTransform="scale(3.26218 7.86958) rotate(90 0 1)"><stop offset=".823" stop-color="#410D10"/><stop offset="1" stop-color="#410D10" stop-opacity="0"/></radialGradient><radialGradient id="paint15_radial" cx="0" cy="0" r="1" gradientUnits="userSpaceOnUse" gradientTransform="scale(3.26217 7.86957) rotate(90 0 1)"><stop offset=".823" stop-color="#410D10"/><stop offset="1" stop-color="#410D10" stop-opacity="0"/></radialGradient><radialGradient id="paint16_radial" cx="0" cy="0" r="1" gradientUnits="userSpaceOnUse" gradientTransform="scale(3.28173 7.82474) rotate(90 0 1)"><stop offset=".823" stop-color="#410D10"/><stop offset="1" stop-color="#410D10" stop-opacity="0"/></radialGradient><radialGradient id="paint17_radial" cx="0" cy="0" r="1" gradientUnits="userSpaceOnUse" gradientTransform="scale(3.30338 7.77438) rotate(90 0 1)"><stop offset=".823" stop-color="#410D10"/><stop offset="1" stop-color="#410D10" stop-opacity="0"/></radialGradient><radialGradient id="paint18_radial" cx="0" cy="0" r="1" gradientUnits="userSpaceOnUse" gradientTransform="scale(3.31193 7.75432) rotate(90 0 1)"><stop offset=".823" stop-color="#410D10"/><stop offset="1" stop-color="#410D10" stop-opacity="0"/></radialGradient><radialGradient id="paint19_radial" cx="0" cy="0" r="1" gradientUnits="userSpaceOnUse" gradientTransform="matrix(0 7.75431 -3.31193 0 3.312 7.754)"><stop offset=".823" stop-color="#410D10"/><stop offset="1" stop-color="#410D10" stop-opacity="0"/></radialGradient><radialGradient id="paint20_radial" cx="0" cy="0" r="1" gradientUnits="userSpaceOnUse" gradientTransform="scale(3.31433 7.74867) rotate(90 0 1)"><stop offset=".823" stop-color="#410D10"/><stop offset="1" stop-color="#410D10" stop-opacity="0"/></radialGradient><radialGradient id="paint21_radial" cx="0" cy="0" r="1" gradientUnits="userSpaceOnUse" gradientTransform="scale(3.31433 7.74867) rotate(90 0 1)"><stop offset=".823" stop-color="#410D10"/><stop offset="1" stop-color="#410D10" stop-opacity="0"/></radialGradient><radialGradient id="paint22_radial" cx="0" cy="0" r="1" gradientUnits="userSpaceOnUse" gradientTransform="matrix(0 7.82489 -3.28165 0 3.282 7.825)"><stop offset=".823" stop-color="#410D10"/><stop offset="1" stop-color="#410D10" stop-opacity="0"/></radialGradient><radialGradient id="paint23_radial" cx="0" cy="0" r="1" gradientUnits="userSpaceOnUse" gradientTransform="matrix(0 7.82489 -3.28165 0 3.282 7.825)"><stop offset=".823" stop-color="#410D10"/><stop offset="1" stop-color="#410D10" stop-opacity="0"/></radialGradient><radialGradient id="paint24_radial" cx="0" cy="0" r="1" gradientUnits="userSpaceOnUse" gradientTransform="matrix(0 7.82489 -3.28165 0 3.282 7.825)"><stop offset=".823" stop-color="#410D10"/><stop offset="1" stop-color="#410D10" stop-opacity="0"/></radialGradient><radialGradient id="paint25_radial" cx="0" cy="0" r="1" gradientUnits="userSpaceOnUse" gradientTransform="matrix(0 7.82489 -3.28165 0 3.282 7.825)"><stop offset=".823" stop-color="#410D10"/><stop offset="1" stop-color="#410D10" stop-opacity="0"/></radialGradient><radialGradient id="paint26_radial" cx="0" cy="0" r="1" gradientUnits="userSpaceOnUse" gradientTransform="matrix(0 7.82489 -3.28165 0 3.282 7.825)"><stop offset=".823" stop-color="#410D10"/><stop offset="1" stop-color="#410D10" stop-opacity="0"/></radialGradient><radialGradient id="paint27_radial" cx="0" cy="0" r="1" gradientUnits="userSpaceOnUse" gradientTransform="matrix(0 7.82489 -3.28165 0 3.282 7.825)"><stop offset=".823" stop-color="#410D10"/><stop offset="1" stop-color="#410D10" stop-opacity="0"/></radialGradient><radialGradient id="paint28_radial" cx="0" cy="0" r="1" gradientUnits="userSpaceOnUse" gradientTransform="matrix(0 7.8249 -3.28166 0 3.282 7.825)"><stop offset=".823" stop-color="#410D10"/><stop offset="1" stop-color="#410D10" stop-opacity="0"/></radialGradient><radialGradient id="paint29_radial" cx="0" cy="0" r="1" gradientUnits="userSpaceOnUse" gradientTransform="matrix(0 7.82489 -3.28165 0 3.282 7.825)"><stop offset=".823" stop-color="#410D10"/><stop offset="1" stop-color="#410D10" stop-opacity="0"/></radialGradient><radialGradient id="paint30_radial" cx="0" cy="0" r="1" gradientUnits="userSpaceOnUse" gradientTransform="matrix(0 7.82489 -3.28165 0 3.282 7.825)"><stop offset=".823" stop-color="#410D10"/><stop offset="1" stop-color="#410D10" stop-opacity="0"/></radialGradient><radialGradient id="paint31_radial" cx="0" cy="0" r="1" gradientUnits="userSpaceOnUse" gradientTransform="scale(2.99372 7.06857) rotate(90 0 1)"><stop offset=".823" stop-color="#410D10"/><stop offset="1" stop-color="#410D10" stop-opacity="0"/></radialGradient><radialGradient id="paint32_radial" cx="0" cy="0" r="1" gradientUnits="userSpaceOnUse" gradientTransform="scale(3.01745 7.01387) rotate(90 0 1)"><stop offset=".823" stop-color="#410D10"/><stop offset="1" stop-color="#410D10" stop-opacity="0"/></radialGradient><radialGradient id="paint33_radial" cx="0" cy="0" r="1" gradientUnits="userSpaceOnUse" gradientTransform="matrix(0 7.01111 -3.01863 0 3.019 7.011)"><stop offset=".823" stop-color="#410D10"/><stop offset="1" stop-color="#410D10" stop-opacity="0"/></radialGradient><radialGradient id="paint34_radial" cx="0" cy="0" r="1" gradientUnits="userSpaceOnUse" gradientTransform="scale(3.31685 7.73027) rotate(90 0 1)"><stop offset=".823" stop-color="#410D10"/><stop offset="1" stop-color="#410D10" stop-opacity="0"/></radialGradient><radialGradient id="paint35_radial" cx="0" cy="0" r="1" gradientUnits="userSpaceOnUse" gradientTransform="scale(3.79303 8.98346) rotate(90 0 1)"><stop offset=".823" stop-color="#410D10"/><stop offset="1" stop-color="#410D10" stop-opacity="0"/></radialGradient><radialGradient id="paint36_radial" cx="0" cy="0" r="1" gradientUnits="userSpaceOnUse" gradientTransform="scale(3.34766 7.66931) rotate(90 0 1)"><stop offset=".823" stop-color="#410D10"/><stop offset="1" stop-color="#410D10" stop-opacity="0"/></radialGradient><radialGradient id="paint37_radial" cx="0" cy="0" r="1" gradientUnits="userSpaceOnUse" gradientTransform="scale(3.43047 8.35327) rotate(90 0 1)"><stop offset=".823" stop-color="#410D10"/><stop offset="1" stop-color="#410D10" stop-opacity="0"/></radialGradient><radialGradient id="paint38_radial" cx="0" cy="0" r="1" gradientUnits="userSpaceOnUse" gradientTransform="matrix(0 8.35326 -3.43047 0 3.43 8.353)"><stop offset=".823" stop-color="#410D10"/><stop offset="1" stop-color="#410D10" stop-opacity="0"/></radialGradient></defs></svg>