<svg width="279" height="226" fill="none" xmlns="http://www.w3.org/2000/svg"><path d="M23.5 113c.602-58.579 59-94.5 116.5-94.5s115.5 39.5 115.5 95-56.849 95.775-115.5 96c-59.077.227-117.107-37.426-116.5-96.5z" fill="url(#paint0_radial)"/><path d="M45 58.956C83.518 42.175 91 35.374 140 33.9c49-1.474 93 25.056 93 25.056-73.915-16.366-115.073-16.138-188 0zM28 88.435c80-15.722 137.5-16.705 223 0 0 0-56.5-26.04-111-26.04S28 88.436 28 88.436zM23.5 113c105-20.144 163.5-13.757 232 0-92.141 16.726-142.945 16.729-232 0zm4 25.548c87.524 15.993 136.459 16.018 223.5 0-87.285 34.913-136.219 34.857-223.5 0z" fill="#398639"/><path d="M45 169.009c71 17.687 121.237 16.429 188 0-72.174 34.714-113.343 34.455-188 0z" fill="#398639"/><defs><radialGradient id="paint0_radial" cx="0" cy="0" r="1" gradientUnits="userSpaceOnUse" gradientTransform="matrix(0 95.5005 -116.002 0 139.498 114)"><stop offset=".442" stop-color="#8FCB58"/><stop offset="1" stop-color="#69C64C"/></radialGradient></defs></svg>